<?xml version="1.0" encoding="UTF-8" standalone="no"?>
<!DOCTYPE svg PUBLIC "-//W3C//DTD SVG 1.1//EN" "http://www.w3.org/Graphics/SVG/1.1/DTD/svg11.dtd">
<svg width="100%" height="100%" viewBox="0 0 288 288" version="1.1" xmlns="http://www.w3.org/2000/svg" xmlns:xlink="http://www.w3.org/1999/xlink" xml:space="preserve" xmlns:serif="http://www.serif.com/" style="fill-rule:evenodd;clip-rule:evenodd;stroke-linejoin:round;stroke-miterlimit:2;">
    <g id="HOCH" transform="matrix(0.497231,0,0,0.397381,-104.231,10.1393)">
        <g transform="matrix(173.661,0,0,217.297,245.336,488.867)">
            <path d="M0.073,0L0.073,-0.716L0.218,-0.716L0.218,-0.434L0.501,-0.434L0.501,-0.716L0.646,-0.716L0.646,0L0.501,0L0.501,-0.313L0.218,-0.313L0.218,0L0.073,0Z" style="fill-rule:nonzero;"/>
        </g>
        <g transform="matrix(173.661,0,0,217.297,370.748,488.867)">
            <path d="M0.043,-0.354C0.043,-0.426 0.054,-0.488 0.076,-0.537C0.092,-0.574 0.115,-0.606 0.143,-0.635C0.171,-0.664 0.202,-0.686 0.235,-0.7C0.28,-0.719 0.331,-0.728 0.39,-0.728C0.495,-0.728 0.58,-0.695 0.643,-0.63C0.706,-0.564 0.738,-0.473 0.738,-0.357C0.738,-0.241 0.706,-0.151 0.644,-0.086C0.581,-0.02 0.497,0.012 0.392,0.012C0.285,0.012 0.201,-0.02 0.138,-0.085C0.075,-0.15 0.043,-0.24 0.043,-0.354ZM0.192,-0.358C0.192,-0.277 0.211,-0.216 0.249,-0.174C0.286,-0.132 0.333,-0.111 0.391,-0.111C0.449,-0.111 0.496,-0.132 0.533,-0.174C0.57,-0.215 0.588,-0.277 0.588,-0.36C0.588,-0.442 0.57,-0.504 0.534,-0.544C0.498,-0.584 0.451,-0.604 0.391,-0.604C0.332,-0.604 0.284,-0.584 0.247,-0.543C0.211,-0.502 0.192,-0.441 0.192,-0.358Z" style="fill-rule:nonzero;"/>
        </g>
        <g transform="matrix(173.661,0,0,217.297,505.828,488.867)">
            <path d="M0.531,-0.263L0.671,-0.219C0.649,-0.141 0.614,-0.083 0.564,-0.045C0.514,-0.007 0.45,0.012 0.374,0.012C0.278,0.012 0.2,-0.02 0.139,-0.085C0.078,-0.15 0.047,-0.239 0.047,-0.352C0.047,-0.471 0.078,-0.563 0.14,-0.629C0.201,-0.695 0.282,-0.728 0.382,-0.728C0.47,-0.728 0.541,-0.702 0.596,-0.65C0.628,-0.62 0.653,-0.576 0.669,-0.519L0.526,-0.484C0.517,-0.521 0.5,-0.551 0.473,-0.572C0.446,-0.594 0.413,-0.604 0.375,-0.604C0.322,-0.604 0.279,-0.585 0.246,-0.547C0.213,-0.509 0.196,-0.448 0.196,-0.362C0.196,-0.272 0.213,-0.207 0.245,-0.169C0.278,-0.131 0.32,-0.111 0.372,-0.111C0.41,-0.111 0.444,-0.124 0.471,-0.148C0.499,-0.172 0.519,-0.211 0.531,-0.263Z" style="fill-rule:nonzero;"/>
        </g>
        <g transform="matrix(173.661,0,0,217.297,631.24,488.867)">
            <path d="M0.073,0L0.073,-0.716L0.218,-0.716L0.218,-0.434L0.501,-0.434L0.501,-0.716L0.646,-0.716L0.646,0L0.501,0L0.501,-0.313L0.218,-0.313L0.218,0L0.073,0Z" style="fill-rule:nonzero;"/>
        </g>
    </g>
    <g id="WERBEN" transform="matrix(2.0523,0,0,1.18719,-2588.68,-306.15)">
        <g transform="matrix(26.8962,0,0,50,1272.62,481.772)">
            <path d="M0.585,-0.113L0.469,-0.542L0.352,-0.113C0.343,-0.08 0.336,-0.057 0.33,-0.043C0.325,-0.029 0.316,-0.016 0.302,-0.005C0.289,0.007 0.271,0.012 0.249,0.012C0.231,0.012 0.216,0.009 0.205,0.002C0.193,-0.004 0.184,-0.014 0.177,-0.026C0.17,-0.038 0.164,-0.053 0.159,-0.07C0.155,-0.086 0.151,-0.102 0.147,-0.116L0.028,-0.598C0.021,-0.626 0.017,-0.647 0.017,-0.662C0.017,-0.681 0.024,-0.696 0.037,-0.709C0.05,-0.722 0.066,-0.728 0.085,-0.728C0.111,-0.728 0.129,-0.72 0.138,-0.703C0.147,-0.686 0.155,-0.661 0.162,-0.629L0.256,-0.211L0.361,-0.602C0.369,-0.632 0.376,-0.655 0.382,-0.67C0.388,-0.686 0.398,-0.7 0.412,-0.711C0.426,-0.722 0.445,-0.728 0.469,-0.728C0.494,-0.728 0.513,-0.722 0.526,-0.71C0.54,-0.698 0.549,-0.685 0.554,-0.671C0.559,-0.657 0.566,-0.634 0.575,-0.602L0.681,-0.211L0.775,-0.629C0.779,-0.651 0.784,-0.668 0.788,-0.68C0.792,-0.693 0.799,-0.704 0.809,-0.713C0.819,-0.723 0.833,-0.728 0.852,-0.728C0.871,-0.728 0.887,-0.722 0.9,-0.709C0.913,-0.697 0.92,-0.681 0.92,-0.662C0.92,-0.649 0.916,-0.627 0.909,-0.598L0.79,-0.116C0.782,-0.084 0.775,-0.06 0.77,-0.045C0.764,-0.03 0.755,-0.016 0.742,-0.005C0.73,0.007 0.711,0.012 0.688,0.012C0.666,0.012 0.648,0.007 0.635,-0.004C0.621,-0.015 0.612,-0.028 0.607,-0.042C0.602,-0.056 0.594,-0.079 0.585,-0.113Z" style="fill:rgb(244,148,2);fill-rule:nonzero;"/>
        </g>
        <g transform="matrix(26.8962,0,0,50,1297.85,481.772)">
            <path d="M0.55,-0.604L0.223,-0.604L0.223,-0.428L0.524,-0.428C0.546,-0.428 0.563,-0.423 0.573,-0.413C0.584,-0.403 0.59,-0.39 0.59,-0.374C0.59,-0.358 0.584,-0.344 0.574,-0.334C0.563,-0.324 0.546,-0.319 0.524,-0.319L0.223,-0.319L0.223,-0.115L0.561,-0.115C0.584,-0.115 0.601,-0.11 0.613,-0.099C0.624,-0.089 0.63,-0.075 0.63,-0.057C0.63,-0.04 0.624,-0.026 0.613,-0.016C0.601,-0.005 0.584,0 0.561,0L0.167,0C0.135,0 0.113,-0.007 0.099,-0.021C0.085,-0.035 0.078,-0.058 0.078,-0.089L0.078,-0.627C0.078,-0.648 0.081,-0.665 0.087,-0.678C0.094,-0.691 0.103,-0.701 0.116,-0.707C0.13,-0.713 0.146,-0.716 0.167,-0.716L0.55,-0.716C0.573,-0.716 0.59,-0.711 0.601,-0.7C0.613,-0.69 0.618,-0.677 0.618,-0.66C0.618,-0.643 0.613,-0.63 0.601,-0.619C0.59,-0.609 0.573,-0.604 0.55,-0.604Z" style="fill:rgb(244,148,2);fill-rule:nonzero;"/>
        </g>
        <g transform="matrix(26.8962,0,0,50,1315.79,481.772)">
            <path d="M0.273,-0.306L0.222,-0.306L0.222,-0.076C0.222,-0.046 0.215,-0.024 0.202,-0.009C0.189,0.005 0.171,0.012 0.15,0.012C0.127,0.012 0.109,0.005 0.096,-0.01C0.083,-0.025 0.077,-0.047 0.077,-0.076L0.077,-0.627C0.077,-0.658 0.084,-0.681 0.098,-0.695C0.112,-0.709 0.135,-0.716 0.166,-0.716L0.402,-0.716C0.434,-0.716 0.462,-0.714 0.485,-0.712C0.508,-0.709 0.529,-0.703 0.548,-0.695C0.57,-0.685 0.59,-0.672 0.607,-0.654C0.625,-0.637 0.638,-0.616 0.647,-0.593C0.656,-0.57 0.66,-0.545 0.66,-0.519C0.66,-0.466 0.645,-0.423 0.615,-0.391C0.585,-0.359 0.539,-0.337 0.478,-0.323C0.504,-0.31 0.528,-0.289 0.552,-0.263C0.575,-0.236 0.596,-0.208 0.615,-0.177C0.633,-0.147 0.647,-0.12 0.657,-0.096C0.668,-0.072 0.673,-0.055 0.673,-0.046C0.673,-0.036 0.67,-0.027 0.664,-0.018C0.658,-0.009 0.65,-0.001 0.639,0.004C0.629,0.01 0.617,0.012 0.603,0.012C0.587,0.012 0.573,0.008 0.562,0.001C0.551,-0.007 0.541,-0.017 0.533,-0.028C0.525,-0.04 0.515,-0.057 0.501,-0.08L0.443,-0.177C0.422,-0.212 0.403,-0.239 0.387,-0.258C0.371,-0.276 0.354,-0.289 0.337,-0.296C0.32,-0.303 0.299,-0.306 0.273,-0.306ZM0.356,-0.607L0.222,-0.607L0.222,-0.41L0.352,-0.41C0.387,-0.41 0.416,-0.413 0.44,-0.419C0.464,-0.425 0.482,-0.435 0.494,-0.45C0.507,-0.464 0.513,-0.484 0.513,-0.51C0.513,-0.53 0.508,-0.547 0.498,-0.562C0.488,-0.577 0.474,-0.589 0.456,-0.596C0.439,-0.603 0.406,-0.607 0.356,-0.607Z" style="fill:rgb(244,148,2);fill-rule:nonzero;"/>
        </g>
        <g transform="matrix(26.8962,0,0,50,1335.14,481.772)">
            <path d="M0.384,0L0.165,0C0.133,0 0.111,-0.007 0.097,-0.021C0.084,-0.035 0.077,-0.058 0.077,-0.089L0.077,-0.627C0.077,-0.659 0.084,-0.681 0.098,-0.695C0.112,-0.709 0.134,-0.716 0.165,-0.716L0.397,-0.716C0.431,-0.716 0.461,-0.714 0.486,-0.709C0.511,-0.705 0.533,-0.697 0.553,-0.685C0.57,-0.675 0.585,-0.662 0.598,-0.647C0.611,-0.631 0.621,-0.614 0.628,-0.595C0.635,-0.577 0.638,-0.557 0.638,-0.536C0.638,-0.465 0.602,-0.412 0.531,-0.379C0.625,-0.349 0.672,-0.291 0.672,-0.204C0.672,-0.164 0.662,-0.128 0.641,-0.096C0.621,-0.064 0.593,-0.04 0.558,-0.025C0.536,-0.016 0.511,-0.009 0.483,-0.006C0.455,-0.002 0.422,0 0.384,0ZM0.373,-0.318L0.222,-0.318L0.222,-0.109L0.378,-0.109C0.476,-0.109 0.525,-0.144 0.525,-0.215C0.525,-0.251 0.512,-0.277 0.487,-0.293C0.461,-0.31 0.424,-0.318 0.373,-0.318ZM0.222,-0.607L0.222,-0.422L0.355,-0.422C0.391,-0.422 0.419,-0.425 0.439,-0.432C0.458,-0.439 0.473,-0.452 0.484,-0.471C0.492,-0.485 0.496,-0.5 0.496,-0.517C0.496,-0.553 0.483,-0.577 0.458,-0.589C0.432,-0.601 0.393,-0.607 0.34,-0.607L0.222,-0.607Z" style="fill:rgb(244,148,2);fill-rule:nonzero;"/>
        </g>
        <g transform="matrix(26.8962,0,0,50,1354.48,481.772)">
            <path d="M0.55,-0.604L0.223,-0.604L0.223,-0.428L0.524,-0.428C0.546,-0.428 0.563,-0.423 0.573,-0.413C0.584,-0.403 0.59,-0.39 0.59,-0.374C0.59,-0.358 0.584,-0.344 0.574,-0.334C0.563,-0.324 0.546,-0.319 0.524,-0.319L0.223,-0.319L0.223,-0.115L0.561,-0.115C0.584,-0.115 0.601,-0.11 0.613,-0.099C0.624,-0.089 0.63,-0.075 0.63,-0.057C0.63,-0.04 0.624,-0.026 0.613,-0.016C0.601,-0.005 0.584,0 0.561,0L0.167,0C0.135,0 0.113,-0.007 0.099,-0.021C0.085,-0.035 0.078,-0.058 0.078,-0.089L0.078,-0.627C0.078,-0.648 0.081,-0.665 0.087,-0.678C0.094,-0.691 0.103,-0.701 0.116,-0.707C0.13,-0.713 0.146,-0.716 0.167,-0.716L0.55,-0.716C0.573,-0.716 0.59,-0.711 0.601,-0.7C0.613,-0.69 0.618,-0.677 0.618,-0.66C0.618,-0.643 0.613,-0.63 0.601,-0.619C0.59,-0.609 0.573,-0.604 0.55,-0.604Z" style="fill:rgb(244,148,2);fill-rule:nonzero;"/>
        </g>
        <g transform="matrix(26.8962,0,0,50,1372.42,481.772)">
            <path d="M0.267,-0.641L0.546,-0.219L0.546,-0.645C0.546,-0.673 0.552,-0.693 0.564,-0.707C0.576,-0.721 0.592,-0.728 0.612,-0.728C0.633,-0.728 0.649,-0.721 0.661,-0.707C0.673,-0.693 0.679,-0.673 0.679,-0.645L0.679,-0.082C0.679,-0.019 0.653,0.012 0.601,0.012C0.588,0.012 0.576,0.01 0.566,0.007C0.556,0.003 0.546,-0.003 0.537,-0.011C0.528,-0.019 0.519,-0.029 0.511,-0.04C0.503,-0.051 0.496,-0.062 0.488,-0.073L0.216,-0.49L0.216,-0.071C0.216,-0.043 0.209,-0.023 0.197,-0.009C0.184,0.005 0.168,0.012 0.148,0.012C0.127,0.012 0.111,0.005 0.099,-0.009C0.086,-0.023 0.08,-0.044 0.08,-0.071L0.08,-0.623C0.08,-0.646 0.083,-0.665 0.088,-0.678C0.094,-0.693 0.104,-0.705 0.119,-0.714C0.133,-0.723 0.148,-0.728 0.165,-0.728C0.178,-0.728 0.189,-0.726 0.198,-0.722C0.208,-0.717 0.216,-0.712 0.223,-0.705C0.23,-0.697 0.237,-0.688 0.244,-0.677C0.252,-0.665 0.259,-0.653 0.267,-0.641Z" style="fill:rgb(244,148,2);fill-rule:nonzero;"/>
        </g>
    </g>
    <g id="Quote-Left" serif:id="Quote Left" transform="matrix(0.999999,0,0,1.01103,-950.026,-135.945)">
        <path d="M1187.72,134.462L1172.51,178.462L1186.75,178.462L1207.64,134.462L1187.72,134.462Z"/>
    </g>
    <g id="Quote-Left1" serif:id="Quote Left" transform="matrix(0.999999,0,0,1.01103,-920.181,-135.945)">
        <path d="M1187.72,134.462L1172.51,178.462L1186.75,178.462L1207.64,134.462L1187.72,134.462Z"/>
    </g>
    <g id="Black-Square--Outside-" serif:id="Black Square (Outside)" transform="matrix(0.999999,0,0,0.999999,-302.126,-499.708)">
        <path d="M585.973,641.441L589.589,641.441L589.589,787.173L302.126,787.173L302.126,499.71L497.536,499.71L497.536,503.326L305.742,503.326L305.742,783.557L585.973,783.557L585.973,641.441Z" style="fill:rgb(244,148,2);"/>
    </g>
</svg>
